# xmcd CD database file
#
# Track frame offsets:
#	150
#	12375
#	25569
#	44062
#	58960
#	70220
#	82032
#	99445
#	111760
#	129945
#
# Disc length: 1955 seconds
#
# Revision: 0
# Processed by: cddbd v1.5.2PL0 Copyright (c) Steve Scherf et al.
# Submitted via: CDex 1.70beta2
#
DISCID=8307a10a
DTITLE=Williams, Andy T. - Cdn. - ON - OVM - Kanata - Our Home
DYEAR=1996
DGENRE=Country
TTITLE0=You Were Right I Was Wrong
TTITLE1=Noboby Knows You Like I Do
TTITLE2=Our Home
TTITLE3=Rockin' Me Slow
TTITLE4=You'd Be Surprised
TTITLE5=A Fool Such As I
TTITLE6=The Eleventh Line
TTITLE7=The Storkeeper
TTITLE8=Let No One Divide
TTITLE9=Moon River
EXTD=YEAR: 1996
EXTT0=
EXTT1=
EXTT2=
EXTT3=
EXTT4=
EXTT5=
EXTT6=
EXTT7=
EXTT8=
EXTT9=
PLAYORDER=
